<?xml version="1.0" ?><svg data-name="Layer 1" id="Layer_1" viewBox="0 0 150 150" xmlns="http://www.w3.org/2000/svg" xmlns:xlink="http://www.w3.org/1999/xlink"><defs><style>.cls-1{fill:#13818d;}.cls-2{clip-path:url(#clip-path);}.cls-3{fill:#30a7ad;}.cls-4{fill:#44c2c7;}.cls-5{fill:#fff;}</style><clipPath id="clip-path"><circle class="cls-1" cx="75" cy="75" r="65"/></clipPath></defs><title/><circle class="cls-1" cx="75" cy="75" r="65"/><g class="cls-2"><path class="cls-3" d="M19.31,83.78L74.61,34l60.61,52s-26.93,25.73-60.68,25.73C37.05,111.72,19.31,83.78,19.31,83.78Z"/><path class="cls-4" d="M-42.52,107.63l55.31-49.8,60.61,52s-26.93,25.73-60.68,25.73C-24.77,135.57-42.52,107.63-42.52,107.63Z"/><path class="cls-4" d="M83.94,104.14l55.31-49.8,60.61,52s-26.93,25.73-60.68,25.73C101.69,132.09,83.94,104.14,83.94,104.14Z"/><path class="cls-5" d="M74.37,78.44V64.32l31.46-11.42L71.49,45v1.45h0V78.33L24.65,120.49s15.46,24.35,48.11,24.35c29.4,0,52.86-22.41,52.86-22.41Z"/></g></svg>